<svg xmlns="http://www.w3.org/2000/svg" width="24" height="24" fill="none"><path d="M7.375 6.159 6.159 4.943a.86.86 0 1 0-1.216 1.216l1.216 1.216a.856.856 0 0 0 1.216 0 .86.86 0 0 0 0-1.216ZM4.5 11.379H2.78a.86.86 0 0 0 0 1.72H4.5a.86.86 0 0 0 0-1.72Zm2.875 5.726a.86.86 0 0 0-1.216 0L4.943 18.32a.86.86 0 1 0 1.216 1.216l1.216-1.216a.86.86 0 0 0 0-1.216Zm4.865 2.015a.86.86 0 0 0-.86.86v1.72a.86.86 0 0 0 1.72 0v-1.72a.86.86 0 0 0-.86-.86Zm7.297-.799-1.216-1.216a.86.86 0 0 0-1.216 1.216l1.216 1.216a.855.855 0 0 0 1.216 0 .86.86 0 0 0 0-1.216ZM21.7 11.38h-1.72a.86.86 0 0 0 0 1.72h1.72a.86.86 0 0 0 0-1.72Zm-2.163-6.437a.86.86 0 0 0-1.216 0l-1.216 1.216a.86.86 0 1 0 1.216 1.216l1.216-1.216a.86.86 0 0 0 0-1.216ZM12.24 1.92a.86.86 0 0 0-.86.86V4.5a.86.86 0 0 0 1.72 0V2.78a.86.86 0 0 0-.86-.86Zm0 4.73a5.596 5.596 0 0 0-5.59 5.59 5.596 5.596 0 0 0 5.59 5.59 5.596 5.596 0 0 0 5.59-5.59 5.596 5.596 0 0 0-5.59-5.59Zm0 9.46a3.875 3.875 0 0 1-3.87-3.87 3.875 3.875 0 0 1 3.87-3.87 3.875 3.875 0 0 1 3.87 3.87 3.875 3.875 0 0 1-3.87 3.87Z" fill="currentColor"/></svg>
