<svg xmlns="http://www.w3.org/2000/svg" width="66" height="66" fill="none"><g clip-path="url(#a)"><path d="M0 0h66v66H0V0Z" fill="#000"/><path d="M5.693 53.625h24.75v4.125H5.693v-4.125ZM5.415 17.378l1.92-1.813c.523.63 1.015.999 1.69.999.738 0 1.215-.507 1.215-1.506V8.25h2.966v6.823c0 1.352-.338 2.305-1.06 3.028-.708.707-1.722 1.09-2.951 1.09-1.875 0-3.012-.783-3.78-1.813ZM13.897 8.25h8.652v2.52h-5.701v1.645h5.163v2.35h-5.163v1.707h5.778v2.535h-8.729V8.25ZM26.446 10.863h-3.212V8.25h9.42v2.613h-3.227v8.144h-2.98v-8.145ZM13.175 26.655c.953-.415 1.66-1.153 1.66-2.398v-.03a2.422 2.422 0 0 0-.692-1.753c-.63-.614-1.583-.953-2.935-.953H5.69V32.28h5.548c2.566 0 4.072-1.122 4.072-2.966v-.031c0-1.46-.83-2.198-2.136-2.627Zm-4.58-2.736h1.952c.876 0 1.353.323 1.353.922v.031c0 .63-.523.937-1.43.937H8.597v-1.89Zm3.735 4.98c0 .63-.507.983-1.429.983H8.596v-1.983h2.274c1 0 1.46.384 1.46.968v.031ZM31.661 21.445h-2.873l-4.02 9.54-1.68-2.456c1.336-.569 2.212-1.66 2.212-3.32v-.03c0-1.06-.323-1.875-.952-2.505-.723-.722-1.86-1.152-3.504-1.152h-5.087v10.757h2.981V29.02h1.322l2.166 3.258h5.117l.768-1.936h4.165l.768 1.936h3.197l-4.58-10.834Zm-9.343 3.965c0 .783-.6 1.275-1.598 1.275h-1.982v-2.597h1.967c.984 0 1.614.43 1.614 1.29v.032Zm6.67 2.612 1.214-3.043 1.198 3.043h-2.412ZM36.594 21.521h2.981V32.28h-2.98V21.52ZM40.313 21.521h2.781l4.426 5.686v-5.686h2.95V32.28h-2.596l-4.61-5.901v5.9h-2.951V21.523ZM50.658 30.68l1.66-1.982c1.075.845 2.243 1.291 3.488 1.291.814 0 1.244-.277 1.244-.738v-.03c0-.461-.353-.692-1.829-1.045-2.29-.523-4.057-1.168-4.057-3.366v-.03c0-1.998 1.583-3.443 4.165-3.443 1.829 0 3.258.492 4.425 1.43l-1.49 2.105c-.983-.708-2.059-1.06-3.012-1.06-.722 0-1.075.291-1.075.69v.031c0 .492.369.707 1.875 1.045 2.459.538 3.995 1.337 3.995 3.35v.03c0 2.198-1.736 3.505-4.349 3.505-1.905 0-3.703-.6-5.04-1.783Z" fill="#fff"/></g><path stroke="#fff" d="M.5.5h65v65H.5z"/><defs><clipPath id="a"><path fill="#fff" d="M0 0h66v66H0z"/></clipPath></defs></svg>
