<svg width="19" height="19" fill="none" xmlns="http://www.w3.org/2000/svg"><path d="M9.5.297a.89.89 0 0 0-.89.89v2.375a.89.89 0 1 0 1.78 0V1.188A.89.89 0 0 0 9.5.296ZM4.453 9.5a.89.89 0 0 0-.89-.89H1.187a.89.89 0 1 0 0 1.78h2.375a.89.89 0 0 0 .891-.89Zm.219 3.568-1.68 1.68a.89.89 0 1 0 1.26 1.26L5.93 14.33a.891.891 0 1 0-1.259-1.26ZM9.5 14.547a.89.89 0 0 0-.89.89v2.376a.89.89 0 0 0 1.78 0v-2.375a.89.89 0 0 0-.89-.891Zm4.828-1.479a.891.891 0 0 0-1.259 1.26l1.68 1.68a.886.886 0 0 0 1.258 0 .89.89 0 0 0 0-1.26l-1.679-1.68Zm3.485-4.459h-2.375a.89.89 0 0 0 0 1.782h2.374a.89.89 0 0 0 0-1.782Zm-4.115-2.417a.886.886 0 0 0 .63-.261l1.68-1.68a.89.89 0 1 0-1.26-1.259l-1.68 1.68a.89.89 0 0 0 .63 1.52Z" fill="currentColor"/></svg>
